<svg xmlns="http://www.w3.org/2000/svg" xmlns:xlink="http://www.w3.org/1999/xlink" width="1280" zoomAndPan="magnify" viewBox="0 0 960 540.000001" height="720" preserveAspectRatio="xMidYMid meet" version="1.2"><defs><clipPath id="e7ae457c08"><path d="M 0.886719 0 L 959.113281 0 L 959.113281 539 L 0.886719 539 Z M 0.886719 0 "/></clipPath></defs><g id="fb9b5fc7cf"><g clip-rule="nonzero" clip-path="url(#e7ae457c08)"><path style=" stroke:none;fill-rule:nonzero;fill:#ffffff;fill-opacity:1;" d="M 0.886719 0 L 959.113281 0 L 959.113281 539 L 0.886719 539 Z M 0.886719 0 "/><path style=" stroke:none;fill-rule:nonzero;fill:#eaeadf;fill-opacity:1;" d="M 0.886719 0 L 959.113281 0 L 959.113281 539 L 0.886719 539 Z M 0.886719 0 "/></g><g style="fill:#282828;fill-opacity:1;"><g transform="translate(63.901494, 324.152882)"><path style="stroke:none" d="M 139.46875 0 L 112.90625 -93.171875 L 86.34375 0 L 44.28125 0 L -3.015625 -166.03125 L 39.046875 -166.03125 L 67.421875 -52.125 L 68.421875 -52.125 L 98.609375 -166.03125 L 127.1875 -166.03125 L 157.375 -52.125 L 158.390625 -52.125 L 186.765625 -166.03125 L 228.625 -166.03125 L 181.328125 0 Z M 139.46875 0 "/></g></g><g style="fill:#282828;fill-opacity:1;"><g transform="translate(271.172173, 324.152882)"><path style="stroke:none" d="M 19.109375 -12.78125 C 9.453125 -23.3125 4.625 -36.222656 4.625 -51.515625 C 4.625 -66.816406 9.453125 -79.765625 19.109375 -90.359375 C 28.773438 -100.960938 41.054688 -106.265625 55.953125 -106.265625 C 69.628906 -106.265625 80.894531 -101.96875 89.75 -93.375 L 89.75 -103.234375 L 125.375 -103.234375 L 125.375 0 L 90.15625 0 L 90.15625 -11.671875 L 89.75 -11.671875 C 80.894531 -1.878906 69.628906 3.015625 55.953125 3.015625 C 41.054688 3.015625 28.773438 -2.25 19.109375 -12.78125 Z M 49.40625 -69.03125 C 44.78125 -64.46875 42.46875 -58.628906 42.46875 -51.515625 C 42.46875 -44.410156 44.679688 -38.609375 49.109375 -34.109375 C 53.535156 -29.617188 59.367188 -27.375 66.609375 -27.375 C 73.585938 -27.375 79.320312 -29.65625 83.8125 -34.21875 C 88.3125 -38.78125 90.5625 -44.546875 90.5625 -51.515625 C 90.5625 -58.628906 88.242188 -64.46875 83.609375 -69.03125 C 78.984375 -73.59375 73.316406 -75.875 66.609375 -75.875 C 59.765625 -75.875 54.03125 -73.59375 49.40625 -69.03125 Z M 49.40625 -69.03125 "/></g></g><g style="fill:#282828;fill-opacity:1;"><g transform="translate(390.301529, 324.152882)"><path style="stroke:none" d="M 67.015625 -77.078125 C 60.304688 -77.078125 54.535156 -74.59375 49.703125 -69.625 C 44.878906 -64.664062 42.46875 -58.695312 42.46875 -51.71875 C 42.46875 -44.613281 44.878906 -38.578125 49.703125 -33.609375 C 54.535156 -28.640625 60.304688 -26.15625 67.015625 -26.15625 C 70.234375 -26.15625 73.285156 -26.554688 76.171875 -27.359375 C 79.054688 -28.171875 81.171875 -28.976562 82.515625 -29.78125 L 84.328125 -31 L 96.40625 -6.234375 C 95.457031 -5.566406 94.144531 -4.726562 92.46875 -3.71875 C 90.789062 -2.71875 86.96875 -1.347656 81 0.390625 C 75.03125 2.140625 68.625 3.015625 61.78125 3.015625 C 46.625 3.015625 33.304688 -2.316406 21.828125 -12.984375 C 10.359375 -23.648438 4.625 -36.425781 4.625 -51.3125 C 4.625 -66.34375 10.359375 -79.257812 21.828125 -90.0625 C 33.304688 -100.863281 46.625 -106.265625 61.78125 -106.265625 C 68.625 -106.265625 74.929688 -105.457031 80.703125 -103.84375 C 86.472656 -102.238281 90.566406 -100.628906 92.984375 -99.015625 L 96.40625 -96.59375 L 84.328125 -72.25 C 79.898438 -75.46875 74.128906 -77.078125 67.015625 -77.078125 Z M 67.015625 -77.078125 "/></g></g><g style="fill:#282828;fill-opacity:1;"><g transform="translate(470.79359, 324.152882)"><path style="stroke:none" d="M 139.46875 0 L 112.90625 -93.171875 L 86.34375 0 L 44.28125 0 L -3.015625 -166.03125 L 39.046875 -166.03125 L 67.421875 -52.125 L 68.421875 -52.125 L 98.609375 -166.03125 L 127.1875 -166.03125 L 157.375 -52.125 L 158.390625 -52.125 L 186.765625 -166.03125 L 228.625 -166.03125 L 181.328125 0 Z M 139.46875 0 "/></g></g><g style="fill:#282828;fill-opacity:1;"><g transform="translate(678.064268, 324.152882)"><path style="stroke:none" d="M 19.109375 -12.78125 C 9.453125 -23.3125 4.625 -36.222656 4.625 -51.515625 C 4.625 -66.816406 9.453125 -79.765625 19.109375 -90.359375 C 28.773438 -100.960938 41.054688 -106.265625 55.953125 -106.265625 C 69.628906 -106.265625 80.894531 -101.96875 89.75 -93.375 L 89.75 -103.234375 L 125.375 -103.234375 L 125.375 0 L 90.15625 0 L 90.15625 -11.671875 L 89.75 -11.671875 C 80.894531 -1.878906 69.628906 3.015625 55.953125 3.015625 C 41.054688 3.015625 28.773438 -2.25 19.109375 -12.78125 Z M 49.40625 -69.03125 C 44.78125 -64.46875 42.46875 -58.628906 42.46875 -51.515625 C 42.46875 -44.410156 44.679688 -38.609375 49.109375 -34.109375 C 53.535156 -29.617188 59.367188 -27.375 66.609375 -27.375 C 73.585938 -27.375 79.320312 -29.65625 83.8125 -34.21875 C 88.3125 -38.78125 90.5625 -44.546875 90.5625 -51.515625 C 90.5625 -58.628906 88.242188 -64.46875 83.609375 -69.03125 C 78.984375 -73.59375 73.316406 -75.875 66.609375 -75.875 C 59.765625 -75.875 54.03125 -73.59375 49.40625 -69.03125 Z M 49.40625 -69.03125 "/></g></g><g style="fill:#282828;fill-opacity:1;"><g transform="translate(797.193624, 324.152882)"><path style="stroke:none" d="M 67.015625 -77.078125 C 60.304688 -77.078125 54.535156 -74.59375 49.703125 -69.625 C 44.878906 -64.664062 42.46875 -58.695312 42.46875 -51.71875 C 42.46875 -44.613281 44.878906 -38.578125 49.703125 -33.609375 C 54.535156 -28.640625 60.304688 -26.15625 67.015625 -26.15625 C 70.234375 -26.15625 73.285156 -26.554688 76.171875 -27.359375 C 79.054688 -28.171875 81.171875 -28.976562 82.515625 -29.78125 L 84.328125 -31 L 96.40625 -6.234375 C 95.457031 -5.566406 94.144531 -4.726562 92.46875 -3.71875 C 90.789062 -2.71875 86.96875 -1.347656 81 0.390625 C 75.03125 2.140625 68.625 3.015625 61.78125 3.015625 C 46.625 3.015625 33.304688 -2.316406 21.828125 -12.984375 C 10.359375 -23.648438 4.625 -36.425781 4.625 -51.3125 C 4.625 -66.34375 10.359375 -79.257812 21.828125 -90.0625 C 33.304688 -100.863281 46.625 -106.265625 61.78125 -106.265625 C 68.625 -106.265625 74.929688 -105.457031 80.703125 -103.84375 C 86.472656 -102.238281 90.566406 -100.628906 92.984375 -99.015625 L 96.40625 -96.59375 L 84.328125 -72.25 C 79.898438 -75.46875 74.128906 -77.078125 67.015625 -77.078125 Z M 67.015625 -77.078125 "/></g></g><g style="fill:#de911d;fill-opacity:1;"><g transform="translate(361.645063, 364.393186)"><path style="stroke:none" d="M 9.421875 -14.59375 L 9.5625 -14.46875 C 11.75 -19.03125 14.003906 -22.644531 16.328125 -25.3125 C 18.660156 -27.976562 20.753906 -29.3125 22.609375 -29.3125 C 23.640625 -29.3125 24.441406 -28.96875 25.015625 -28.28125 C 25.597656 -27.59375 25.890625 -26.625 25.890625 -25.375 C 25.890625 -24.46875 25.738281 -23.414062 25.4375 -22.21875 L 23.640625 -14.59375 L 23.765625 -14.46875 C 26.566406 -19.84375 29.007812 -23.660156 31.09375 -25.921875 C 33.175781 -28.179688 35.0625 -29.3125 36.75 -29.3125 C 37.738281 -29.3125 38.546875 -28.976562 39.171875 -28.3125 C 39.796875 -27.644531 40.109375 -26.734375 40.109375 -25.578125 C 40.109375 -25.097656 40.070312 -24.644531 40 -24.21875 C 39.9375 -23.789062 39.851562 -23.390625 39.75 -23.015625 C 39.644531 -22.648438 39.566406 -22.363281 39.515625 -22.15625 L 35.640625 -5.484375 C 35.390625 -4.453125 35.265625 -3.828125 35.265625 -3.609375 C 35.265625 -3.441406 35.328125 -3.300781 35.453125 -3.1875 C 35.578125 -3.082031 35.726562 -3.03125 35.90625 -3.03125 C 36.632812 -3.03125 37.90625 -4.320312 39.71875 -6.90625 L 40.5625 -6.453125 C 38.789062 -3.828125 37.3125 -1.960938 36.125 -0.859375 C 34.945312 0.234375 33.863281 0.78125 32.875 0.78125 C 32.132812 0.78125 31.53125 0.519531 31.0625 0 C 30.59375 -0.519531 30.359375 -1.253906 30.359375 -2.203125 C 30.359375 -3.234375 30.484375 -4.203125 30.734375 -5.109375 L 34.8125 -22.40625 C 34.9375 -22.789062 35 -23.285156 35 -23.890625 C 35 -24.835938 34.65625 -25.3125 33.96875 -25.3125 C 32.84375 -25.3125 31.460938 -24.234375 29.828125 -22.078125 C 28.148438 -19.847656 26.503906 -17.210938 24.890625 -14.171875 C 23.273438 -11.140625 22.316406 -8.957031 22.015625 -7.625 L 20.28125 0 L 15.5 0 L 20.21875 -20.40625 C 20.300781 -20.707031 20.4375 -21.242188 20.625 -22.015625 C 20.820312 -22.796875 20.921875 -23.359375 20.921875 -23.703125 C 20.921875 -24.773438 20.515625 -25.3125 19.703125 -25.3125 C 18.535156 -25.3125 16.894531 -23.890625 14.78125 -21.046875 C 13.28125 -18.984375 11.828125 -16.570312 10.421875 -13.8125 C 9.023438 -11.0625 8.15625 -8.953125 7.8125 -7.484375 L 6.078125 0 L 1.296875 0 L 6.328125 -21.890625 C 6.628906 -23.097656 6.78125 -24.085938 6.78125 -24.859375 C 6.78125 -25.460938 6.585938 -25.9375 6.203125 -26.28125 C 5.816406 -26.625 5.171875 -26.835938 4.265625 -26.921875 L 4.515625 -27.96875 L 11.8125 -29.3125 L 12.84375 -29.3125 Z M 9.421875 -14.59375 "/></g></g><g style="fill:#de911d;fill-opacity:1;"><g transform="translate(398.706972, 364.393186)"><path style="stroke:none" d="M 14.984375 -29.3125 C 16.234375 -29.3125 17.144531 -28.867188 17.71875 -27.984375 C 18.300781 -27.109375 18.679688 -25.832031 18.859375 -24.15625 L 18.859375 -24.09375 L 18.984375 -24.09375 L 19.953125 -28.34375 L 24.609375 -29.3125 L 19.5625 -7.234375 C 19.132812 -5.722656 18.921875 -4.539062 18.921875 -3.6875 C 18.921875 -3.46875 18.972656 -3.269531 19.078125 -3.09375 C 19.191406 -2.925781 19.332031 -2.84375 19.5 -2.84375 C 19.882812 -2.84375 20.320312 -3.109375 20.8125 -3.640625 C 21.3125 -4.179688 22.082031 -5.164062 23.125 -6.59375 L 23.953125 -6 C 22.273438 -3.59375 20.863281 -1.859375 19.71875 -0.796875 C 18.582031 0.253906 17.5625 0.78125 16.65625 0.78125 C 15.96875 0.78125 15.429688 0.5 15.046875 -0.0625 C 14.660156 -0.625 14.46875 -1.378906 14.46875 -2.328125 C 14.46875 -2.972656 14.5625 -3.914062 14.75 -5.15625 C 14.945312 -6.40625 15.175781 -7.550781 15.4375 -8.59375 L 15.3125 -8.71875 C 13.664062 -5.3125 12.15625 -2.875 10.78125 -1.40625 C 9.40625 0.0507812 8.03125 0.78125 6.65625 0.78125 C 5.101562 0.78125 3.851562 0.0703125 2.90625 -1.34375 C 1.957031 -2.769531 1.484375 -4.691406 1.484375 -7.109375 C 1.484375 -10.242188 2.234375 -13.554688 3.734375 -17.046875 C 5.242188 -20.535156 7.078125 -23.453125 9.234375 -25.796875 C 11.390625 -28.140625 13.304688 -29.3125 14.984375 -29.3125 Z M 6.453125 -8.453125 C 6.453125 -5.097656 7.289062 -3.421875 8.96875 -3.421875 C 9.875 -3.421875 10.875 -4.078125 11.96875 -5.390625 C 13.070312 -6.703125 14.054688 -8.367188 14.921875 -10.390625 C 15.828125 -12.585938 16.566406 -14.910156 17.140625 -17.359375 C 17.722656 -19.816406 18.015625 -21.84375 18.015625 -23.4375 C 18.015625 -24.6875 17.742188 -25.738281 17.203125 -26.59375 C 16.671875 -27.457031 15.953125 -27.890625 15.046875 -27.890625 C 13.753906 -27.890625 12.429688 -26.8125 11.078125 -24.65625 C 9.722656 -22.507812 8.613281 -19.894531 7.75 -16.8125 C 6.882812 -13.738281 6.453125 -10.953125 6.453125 -8.453125 Z M 6.453125 -8.453125 "/></g></g><g style="fill:#de911d;fill-opacity:1;"><g transform="translate(419.62677, 364.393186)"><path style="stroke:none" d="M 9.8125 -14.46875 L 9.9375 -14.34375 C 15.238281 -24.320312 19.71875 -29.3125 23.375 -29.3125 C 24.320312 -29.3125 25.085938 -28.96875 25.671875 -28.28125 C 26.253906 -27.59375 26.546875 -26.671875 26.546875 -25.515625 C 26.546875 -24.128906 26.15625 -21.78125 25.375 -18.46875 L 23.3125 -9.625 C 23.09375 -8.59375 22.898438 -7.773438 22.734375 -7.171875 C 22.296875 -5.273438 22.078125 -4.085938 22.078125 -3.609375 C 22.078125 -2.960938 22.296875 -2.640625 22.734375 -2.640625 C 23.117188 -2.640625 23.585938 -2.929688 24.140625 -3.515625 C 24.703125 -4.097656 25.503906 -5.164062 26.546875 -6.71875 L 27.3125 -6.078125 C 25.59375 -3.660156 24.140625 -1.910156 22.953125 -0.828125 C 21.773438 0.242188 20.625 0.78125 19.5 0.78125 C 18.6875 0.78125 18.0625 0.507812 17.625 -0.03125 C 17.195312 -0.570312 16.984375 -1.226562 16.984375 -2 C 16.984375 -2.78125 17.175781 -3.941406 17.5625 -5.484375 L 20.921875 -19.890625 C 21.097656 -20.453125 21.25 -21.117188 21.375 -21.890625 C 21.5 -22.660156 21.5625 -23.222656 21.5625 -23.578125 C 21.5625 -24.085938 21.441406 -24.503906 21.203125 -24.828125 C 20.972656 -25.148438 20.6875 -25.3125 20.34375 -25.3125 C 19.5625 -25.3125 18.554688 -24.675781 17.328125 -23.40625 C 16.109375 -22.132812 14.789062 -20.359375 13.375 -18.078125 C 11.863281 -15.628906 10.554688 -13.015625 9.453125 -10.234375 C 8.359375 -7.460938 7.378906 -4.050781 6.515625 0 L 1.75 0 L 6.78125 -21.890625 C 7.125 -23.484375 7.296875 -24.472656 7.296875 -24.859375 C 7.296875 -25.640625 7.035156 -26.164062 6.515625 -26.4375 C 6.003906 -26.71875 5.296875 -26.859375 4.390625 -26.859375 L 4.65625 -27.890625 L 12.203125 -29.3125 L 13.296875 -29.3125 Z M 9.8125 -14.46875 "/></g></g><g style="fill:#de911d;fill-opacity:1;"><g transform="translate(443.904126, 364.393186)"><path style="stroke:none" d="M 14.984375 -29.3125 C 16.234375 -29.3125 17.144531 -28.867188 17.71875 -27.984375 C 18.300781 -27.109375 18.679688 -25.832031 18.859375 -24.15625 L 18.859375 -24.09375 L 18.984375 -24.09375 L 19.953125 -28.34375 L 24.609375 -29.3125 L 19.5625 -7.234375 C 19.132812 -5.722656 18.921875 -4.539062 18.921875 -3.6875 C 18.921875 -3.46875 18.972656 -3.269531 19.078125 -3.09375 C 19.191406 -2.925781 19.332031 -2.84375 19.5 -2.84375 C 19.882812 -2.84375 20.320312 -3.109375 20.8125 -3.640625 C 21.3125 -4.179688 22.082031 -5.164062 23.125 -6.59375 L 23.953125 -6 C 22.273438 -3.59375 20.863281 -1.859375 19.71875 -0.796875 C 18.582031 0.253906 17.5625 0.78125 16.65625 0.78125 C 15.96875 0.78125 15.429688 0.5 15.046875 -0.0625 C 14.660156 -0.625 14.46875 -1.378906 14.46875 -2.328125 C 14.46875 -2.972656 14.5625 -3.914062 14.75 -5.15625 C 14.945312 -6.40625 15.175781 -7.550781 15.4375 -8.59375 L 15.3125 -8.71875 C 13.664062 -5.3125 12.15625 -2.875 10.78125 -1.40625 C 9.40625 0.0507812 8.03125 0.78125 6.65625 0.78125 C 5.101562 0.78125 3.851562 0.0703125 2.90625 -1.34375 C 1.957031 -2.769531 1.484375 -4.691406 1.484375 -7.109375 C 1.484375 -10.242188 2.234375 -13.554688 3.734375 -17.046875 C 5.242188 -20.535156 7.078125 -23.453125 9.234375 -25.796875 C 11.390625 -28.140625 13.304688 -29.3125 14.984375 -29.3125 Z M 6.453125 -8.453125 C 6.453125 -5.097656 7.289062 -3.421875 8.96875 -3.421875 C 9.875 -3.421875 10.875 -4.078125 11.96875 -5.390625 C 13.070312 -6.703125 14.054688 -8.367188 14.921875 -10.390625 C 15.828125 -12.585938 16.566406 -14.910156 17.140625 -17.359375 C 17.722656 -19.816406 18.015625 -21.84375 18.015625 -23.4375 C 18.015625 -24.6875 17.742188 -25.738281 17.203125 -26.59375 C 16.671875 -27.457031 15.953125 -27.890625 15.046875 -27.890625 C 13.753906 -27.890625 12.429688 -26.8125 11.078125 -24.65625 C 9.722656 -22.507812 8.613281 -19.894531 7.75 -16.8125 C 6.882812 -13.738281 6.453125 -10.953125 6.453125 -8.453125 Z M 6.453125 -8.453125 "/></g></g><g style="fill:#de911d;fill-opacity:1;"><g transform="translate(464.823924, 364.393186)"><path style="stroke:none" d="M 16.28125 -29.3125 C 18.082031 -29.3125 19.648438 -28.691406 20.984375 -27.453125 L 27.640625 -27.453125 L 26.796875 -23.828125 L 22.984375 -23.828125 C 23.328125 -22.660156 23.5 -21.582031 23.5 -20.59375 C 23.5 -18.363281 22.734375 -16.289062 21.203125 -14.375 C 19.679688 -12.457031 17.5 -11.003906 14.65625 -10.015625 C 13.101562 -9.453125 11.90625 -8.828125 11.0625 -8.140625 C 10.226562 -7.453125 9.8125 -6.785156 9.8125 -6.140625 C 9.8125 -5.492188 10.15625 -5 10.84375 -4.65625 C 11.53125 -4.3125 12.695312 -3.921875 14.34375 -3.484375 C 15.113281 -3.316406 15.691406 -3.164062 16.078125 -3.03125 C 18.273438 -2.382812 20.039062 -1.523438 21.375 -0.453125 C 22.707031 0.617188 23.375 2.0625 23.375 3.875 C 23.375 5.59375 22.789062 7.171875 21.625 8.609375 C 20.46875 10.054688 18.910156 11.195312 16.953125 12.03125 C 14.992188 12.875 12.832031 13.296875 10.46875 13.296875 C 7.582031 13.296875 5.222656 12.691406 3.390625 11.484375 C 1.554688 10.285156 0.640625 8.78125 0.640625 6.96875 C 0.640625 4.5625 2.859375 1.875 7.296875 -1.09375 C 6.691406 -1.476562 6.257812 -1.863281 6 -2.25 C 5.75 -2.644531 5.625 -3.078125 5.625 -3.546875 C 5.625 -4.410156 6.019531 -5.328125 6.8125 -6.296875 C 7.601562 -7.265625 8.945312 -8.4375 10.84375 -9.8125 C 9 -10.070312 7.535156 -10.867188 6.453125 -12.203125 C 5.378906 -13.535156 4.84375 -15.171875 4.84375 -17.109375 C 4.84375 -19.128906 5.390625 -21.085938 6.484375 -22.984375 C 7.585938 -24.878906 9.019531 -26.40625 10.78125 -27.5625 C 12.550781 -28.726562 14.382812 -29.3125 16.28125 -29.3125 Z M 10.078125 -15.046875 C 10.078125 -12.503906 10.894531 -11.234375 12.53125 -11.234375 C 13.601562 -11.234375 14.601562 -11.921875 15.53125 -13.296875 C 16.457031 -14.679688 17.1875 -16.363281 17.71875 -18.34375 C 18.257812 -20.320312 18.53125 -22.171875 18.53125 -23.890625 C 18.53125 -25.054688 18.289062 -25.972656 17.8125 -26.640625 C 17.34375 -27.304688 16.703125 -27.640625 15.890625 -27.640625 C 14.679688 -27.640625 13.644531 -26.882812 12.78125 -25.375 C 11.925781 -23.875 11.257812 -22.109375 10.78125 -20.078125 C 10.3125 -18.054688 10.078125 -16.378906 10.078125 -15.046875 Z M 4.203125 6 C 4.203125 7.6875 4.859375 9.085938 6.171875 10.203125 C 7.484375 11.316406 9.109375 11.875 11.046875 11.875 C 12.597656 11.875 14.039062 11.601562 15.375 11.0625 C 16.707031 10.53125 17.757812 9.820312 18.53125 8.9375 C 19.3125 8.0625 19.703125 7.109375 19.703125 6.078125 C 19.703125 5.128906 19.28125 4.234375 18.4375 3.390625 C 17.59375 2.546875 16.078125 1.78125 13.890625 1.09375 L 8.390625 -0.578125 C 6.890625 0.796875 5.816406 1.9375 5.171875 2.84375 C 4.523438 3.75 4.203125 4.800781 4.203125 6 Z M 4.203125 6 "/></g></g><g style="fill:#de911d;fill-opacity:1;"><g transform="translate(485.743723, 364.393186)"><path style="stroke:none" d="M 17.5625 -29.3125 C 19.03125 -29.3125 20.222656 -28.890625 21.140625 -28.046875 C 22.066406 -27.210938 22.53125 -26.128906 22.53125 -24.796875 C 22.53125 -23.421875 22.023438 -21.914062 21.015625 -20.28125 C 20.003906 -18.644531 18.421875 -17.132812 16.265625 -15.75 C 14.117188 -14.375 11.472656 -13.382812 8.328125 -12.78125 C 8.203125 -11.101562 8.140625 -10.050781 8.140625 -9.625 C 8.140625 -7.425781 8.484375 -5.671875 9.171875 -4.359375 C 9.859375 -3.046875 10.785156 -2.390625 11.953125 -2.390625 C 13.109375 -2.390625 14.234375 -2.773438 15.328125 -3.546875 C 16.429688 -4.328125 17.539062 -5.296875 18.65625 -6.453125 L 19.5 -5.75 C 17.132812 -3.289062 15.257812 -1.585938 13.875 -0.640625 C 12.5 0.304688 10.992188 0.78125 9.359375 0.78125 C 7.335938 0.78125 5.753906 -0.0234375 4.609375 -1.640625 C 3.472656 -3.253906 2.90625 -5.441406 2.90625 -8.203125 C 2.90625 -10.953125 3.59375 -14.003906 4.96875 -17.359375 C 6.34375 -20.722656 8.148438 -23.554688 10.390625 -25.859375 C 12.628906 -28.160156 15.019531 -29.3125 17.5625 -29.3125 Z M 8.65625 -14.140625 C 10.675781 -14.523438 12.414062 -15.351562 13.875 -16.625 C 15.34375 -17.894531 16.429688 -19.328125 17.140625 -20.921875 C 17.859375 -22.515625 18.21875 -24.019531 18.21875 -25.4375 C 18.21875 -26.175781 18.066406 -26.769531 17.765625 -27.21875 C 17.460938 -27.664062 16.988281 -27.890625 16.34375 -27.890625 C 14.65625 -27.890625 13.113281 -26.40625 11.71875 -23.4375 C 10.320312 -20.46875 9.300781 -17.367188 8.65625 -14.140625 Z M 8.65625 -14.140625 "/></g></g><g style="fill:#de911d;fill-opacity:1;"><g transform="translate(503.305962, 364.393186)"><path style="stroke:none" d="M 9.421875 -14.59375 L 9.5625 -14.46875 C 11.75 -19.03125 14.003906 -22.644531 16.328125 -25.3125 C 18.660156 -27.976562 20.753906 -29.3125 22.609375 -29.3125 C 23.640625 -29.3125 24.441406 -28.96875 25.015625 -28.28125 C 25.597656 -27.59375 25.890625 -26.625 25.890625 -25.375 C 25.890625 -24.46875 25.738281 -23.414062 25.4375 -22.21875 L 23.640625 -14.59375 L 23.765625 -14.46875 C 26.566406 -19.84375 29.007812 -23.660156 31.09375 -25.921875 C 33.175781 -28.179688 35.0625 -29.3125 36.75 -29.3125 C 37.738281 -29.3125 38.546875 -28.976562 39.171875 -28.3125 C 39.796875 -27.644531 40.109375 -26.734375 40.109375 -25.578125 C 40.109375 -25.097656 40.070312 -24.644531 40 -24.21875 C 39.9375 -23.789062 39.851562 -23.390625 39.75 -23.015625 C 39.644531 -22.648438 39.566406 -22.363281 39.515625 -22.15625 L 35.640625 -5.484375 C 35.390625 -4.453125 35.265625 -3.828125 35.265625 -3.609375 C 35.265625 -3.441406 35.328125 -3.300781 35.453125 -3.1875 C 35.578125 -3.082031 35.726562 -3.03125 35.90625 -3.03125 C 36.632812 -3.03125 37.90625 -4.320312 39.71875 -6.90625 L 40.5625 -6.453125 C 38.789062 -3.828125 37.3125 -1.960938 36.125 -0.859375 C 34.945312 0.234375 33.863281 0.78125 32.875 0.78125 C 32.132812 0.78125 31.53125 0.519531 31.0625 0 C 30.59375 -0.519531 30.359375 -1.253906 30.359375 -2.203125 C 30.359375 -3.234375 30.484375 -4.203125 30.734375 -5.109375 L 34.8125 -22.40625 C 34.9375 -22.789062 35 -23.285156 35 -23.890625 C 35 -24.835938 34.65625 -25.3125 33.96875 -25.3125 C 32.84375 -25.3125 31.460938 -24.234375 29.828125 -22.078125 C 28.148438 -19.847656 26.503906 -17.210938 24.890625 -14.171875 C 23.273438 -11.140625 22.316406 -8.957031 22.015625 -7.625 L 20.28125 0 L 15.5 0 L 20.21875 -20.40625 C 20.300781 -20.707031 20.4375 -21.242188 20.625 -22.015625 C 20.820312 -22.796875 20.921875 -23.359375 20.921875 -23.703125 C 20.921875 -24.773438 20.515625 -25.3125 19.703125 -25.3125 C 18.535156 -25.3125 16.894531 -23.890625 14.78125 -21.046875 C 13.28125 -18.984375 11.828125 -16.570312 10.421875 -13.8125 C 9.023438 -11.0625 8.15625 -8.953125 7.8125 -7.484375 L 6.078125 0 L 1.296875 0 L 6.328125 -21.890625 C 6.628906 -23.097656 6.78125 -24.085938 6.78125 -24.859375 C 6.78125 -25.460938 6.585938 -25.9375 6.203125 -26.28125 C 5.816406 -26.625 5.171875 -26.835938 4.265625 -26.921875 L 4.515625 -27.96875 L 11.8125 -29.3125 L 12.84375 -29.3125 Z M 9.421875 -14.59375 "/></g></g><g style="fill:#de911d;fill-opacity:1;"><g transform="translate(540.367872, 364.393186)"><path style="stroke:none" d="M 17.5625 -29.3125 C 19.03125 -29.3125 20.222656 -28.890625 21.140625 -28.046875 C 22.066406 -27.210938 22.53125 -26.128906 22.53125 -24.796875 C 22.53125 -23.421875 22.023438 -21.914062 21.015625 -20.28125 C 20.003906 -18.644531 18.421875 -17.132812 16.265625 -15.75 C 14.117188 -14.375 11.472656 -13.382812 8.328125 -12.78125 C 8.203125 -11.101562 8.140625 -10.050781 8.140625 -9.625 C 8.140625 -7.425781 8.484375 -5.671875 9.171875 -4.359375 C 9.859375 -3.046875 10.785156 -2.390625 11.953125 -2.390625 C 13.109375 -2.390625 14.234375 -2.773438 15.328125 -3.546875 C 16.429688 -4.328125 17.539062 -5.296875 18.65625 -6.453125 L 19.5 -5.75 C 17.132812 -3.289062 15.257812 -1.585938 13.875 -0.640625 C 12.5 0.304688 10.992188 0.78125 9.359375 0.78125 C 7.335938 0.78125 5.753906 -0.0234375 4.609375 -1.640625 C 3.472656 -3.253906 2.90625 -5.441406 2.90625 -8.203125 C 2.90625 -10.953125 3.59375 -14.003906 4.96875 -17.359375 C 6.34375 -20.722656 8.148438 -23.554688 10.390625 -25.859375 C 12.628906 -28.160156 15.019531 -29.3125 17.5625 -29.3125 Z M 8.65625 -14.140625 C 10.675781 -14.523438 12.414062 -15.351562 13.875 -16.625 C 15.34375 -17.894531 16.429688 -19.328125 17.140625 -20.921875 C 17.859375 -22.515625 18.21875 -24.019531 18.21875 -25.4375 C 18.21875 -26.175781 18.066406 -26.769531 17.765625 -27.21875 C 17.460938 -27.664062 16.988281 -27.890625 16.34375 -27.890625 C 14.65625 -27.890625 13.113281 -26.40625 11.71875 -23.4375 C 10.320312 -20.46875 9.300781 -17.367188 8.65625 -14.140625 Z M 8.65625 -14.140625 "/></g></g><g style="fill:#de911d;fill-opacity:1;"><g transform="translate(557.930112, 364.393186)"><path style="stroke:none" d="M 9.8125 -14.46875 L 9.9375 -14.34375 C 15.238281 -24.320312 19.71875 -29.3125 23.375 -29.3125 C 24.320312 -29.3125 25.085938 -28.96875 25.671875 -28.28125 C 26.253906 -27.59375 26.546875 -26.671875 26.546875 -25.515625 C 26.546875 -24.128906 26.15625 -21.78125 25.375 -18.46875 L 23.3125 -9.625 C 23.09375 -8.59375 22.898438 -7.773438 22.734375 -7.171875 C 22.296875 -5.273438 22.078125 -4.085938 22.078125 -3.609375 C 22.078125 -2.960938 22.296875 -2.640625 22.734375 -2.640625 C 23.117188 -2.640625 23.585938 -2.929688 24.140625 -3.515625 C 24.703125 -4.097656 25.503906 -5.164062 26.546875 -6.71875 L 27.3125 -6.078125 C 25.59375 -3.660156 24.140625 -1.910156 22.953125 -0.828125 C 21.773438 0.242188 20.625 0.78125 19.5 0.78125 C 18.6875 0.78125 18.0625 0.507812 17.625 -0.03125 C 17.195312 -0.570312 16.984375 -1.226562 16.984375 -2 C 16.984375 -2.78125 17.175781 -3.941406 17.5625 -5.484375 L 20.921875 -19.890625 C 21.097656 -20.453125 21.25 -21.117188 21.375 -21.890625 C 21.5 -22.660156 21.5625 -23.222656 21.5625 -23.578125 C 21.5625 -24.085938 21.441406 -24.503906 21.203125 -24.828125 C 20.972656 -25.148438 20.6875 -25.3125 20.34375 -25.3125 C 19.5625 -25.3125 18.554688 -24.675781 17.328125 -23.40625 C 16.109375 -22.132812 14.789062 -20.359375 13.375 -18.078125 C 11.863281 -15.628906 10.554688 -13.015625 9.453125 -10.234375 C 8.359375 -7.460938 7.378906 -4.050781 6.515625 0 L 1.75 0 L 6.78125 -21.890625 C 7.125 -23.484375 7.296875 -24.472656 7.296875 -24.859375 C 7.296875 -25.640625 7.035156 -26.164062 6.515625 -26.4375 C 6.003906 -26.71875 5.296875 -26.859375 4.390625 -26.859375 L 4.65625 -27.890625 L 12.203125 -29.3125 L 13.296875 -29.3125 Z M 9.8125 -14.46875 "/></g></g><g style="fill:#de911d;fill-opacity:1;"><g transform="translate(582.207468, 364.393186)"><path style="stroke:none" d="M 13.953125 -36.234375 L 15.046875 -36.234375 L 13.296875 -28.546875 L 17.6875 -28.546875 L 17.25 -26.609375 L 12.84375 -26.609375 L 7.8125 -4.90625 C 7.726562 -4.5625 7.6875 -4.21875 7.6875 -3.875 C 7.6875 -3.101562 7.921875 -2.71875 8.390625 -2.71875 C 9.335938 -2.71875 10.757812 -4.03125 12.65625 -6.65625 L 13.953125 -6.65625 C 12.398438 -4.332031 10.859375 -2.507812 9.328125 -1.1875 C 7.796875 0.125 6.429688 0.78125 5.234375 0.78125 C 4.503906 0.78125 3.898438 0.507812 3.421875 -0.03125 C 2.953125 -0.570312 2.71875 -1.269531 2.71875 -2.125 C 2.71875 -2.988281 3.015625 -4.734375 3.609375 -7.359375 L 8.078125 -26.609375 L 4.328125 -26.609375 L 4.65625 -27.96875 C 6.414062 -28.519531 8.125 -29.550781 9.78125 -31.0625 C 11.4375 -32.570312 12.828125 -34.296875 13.953125 -36.234375 Z M 13.953125 -36.234375 "/></g></g></g></svg>